<svg width="43" height="71" viewBox="0 0 43 71" fill="none" xmlns="http://www.w3.org/2000/svg">
<path d="M17.5584 67.6401C17.6116 65.9167 17.2659 65.5719 16.6541 64.4583C16.3881 63.9545 17.2394 63.2122 17.4789 62.7879C18.4631 61.1175 14.7655 56.7689 15.7497 50.6439L16.5742 45.5795L16.6274 41.7083C16.654 39.5341 18.2503 34.3106 15.8829 33.7803C13.2228 33.197 10.8553 32.1364 8.5144 30.7576C7.29076 30.0417 5.96076 29.2197 5.56175 27.7614C5.16274 26.303 4.68382 24.9772 4.12521 23.5985C3.43359 21.8485 2.79528 20.2311 1.25244 19.0379C-0.0509995 18.0038 -0.769493 14.6364 1.30537 13.2046C2.98122 12.0379 2.8217 15.8295 3.72613 16.9697C4.47095 17.8977 4.94992 18.375 5.21593 19.6477C5.37553 20.4167 6.27968 21.4773 6.91809 21.9811C7.92892 22.803 8.70036 23.5985 9.25898 24.8182C9.49838 25.375 9.79098 26.3296 10.2432 26.7008C12.3979 27.3371 14.3398 27.9205 16.3615 28.7689C17.7979 29.3788 17.7714 28.0795 19.7931 27.6818C19.5537 23.8901 15.3773 19.4886 18.7024 16.8901C18.8886 16.731 18.9418 16.0682 18.7556 15.9091C18.5694 15.75 18.1704 15.75 17.7448 15.8561C17.3192 15.9621 16.654 15.4053 16.2816 15.1932C16.122 15.0871 15.6434 15.0341 15.4572 14.981C15.0316 14.8219 15.2443 13.8144 14.7123 12.3826C14.1803 10.9508 14.8717 10.1288 15.9092 9.38638C16.4944 8.96214 16.8136 8.67047 17.6117 8.88259C18.8885 9.22728 20.1919 9.67801 20.8835 10.9242C21.8943 12.7007 20.9635 12.144 22.0541 13.947C22.3999 14.5303 22.6392 15.2462 22.9318 15.9356L24.5015 14.928C25.3261 14.3977 25.991 13.6818 26.3368 12.7008C27.2678 10.1553 28.8108 5.91289 30.1409 3.73864C31.0187 2.28031 32.1359 1.16667 33.7585 0.583336L35.4344 0C36.126 0.636363 34.3967 0.689426 33.8913 1.85609L35.0619 1.80309C35.3013 1.80309 35.7002 2.38637 35.5672 2.57197C35.115 2.625 34.2637 2.57199 33.8913 2.67805C31.2312 3.50002 30.6461 7.07953 30.3535 9.51892C30.1141 11.5341 29.2628 11.375 28.8637 12.9129C28.3849 14.6629 27.8529 16.1213 26.8953 17.7122C27.5337 17.9243 28.1191 17.8447 28.7576 17.7917L30.5929 17.6326L34.6895 17.2084L37.0304 16.9432C38.2806 16.7841 42.1111 16.625 42.9889 17.5C43.0687 17.5796 42.6962 17.8977 42.5632 17.8977L40.6747 17.9508L42.5632 18.7462C41.9248 19.8333 40.5949 18.4281 39.4245 18.6137L40.2756 19.197C40.2756 19.197 40.2758 19.7538 40.1428 19.7804C39.2915 20.072 38.9989 19.1439 36.7378 18.7992C34.7693 18.5076 35.195 19.8334 31.8433 19.8599C30.1941 19.8599 28.598 20.4167 27.1349 21.053C27.9862 23.0682 26.7623 23.7576 26.5495 24.6856L25.725 28.6099C25.3526 30.4129 24.8206 32.1099 24.0225 33.7803C22.2137 37.5455 23.3309 41.231 21.6284 44.9167C21.522 45.1288 21.1497 45.553 21.0699 45.8182C20.4049 48.0454 19.8463 50.4583 19.5005 52.7916C19.0749 55.6288 19.6068 55.947 19.66 58.2273C19.6866 59.9508 19.8197 61.5152 20.4315 63.1061C20.9635 64.4849 20.9101 65.8901 20.2451 67.2159L18.5693 70.6364C18.3564 71.0606 17.6117 71.1136 17.3191 70.7955C16.4679 69.8674 16.8936 68.4091 17.4789 67.6667L17.5584 67.6401Z" fill="black"/>
</svg>
