<?xml version="1.0" encoding="UTF-8"?>
<svg id="Capa_1" data-name="Capa 1" xmlns="http://www.w3.org/2000/svg" viewBox="0 0 1583.14 597.55">
  <defs>
    <style>
      .cls-1 {
        letter-spacing: 0em;
      }

      .cls-2 {
        fill: #f2f2f2;
      }

      .cls-3 {
        letter-spacing: -.01em;
      }

      .cls-4 {
        fill: #1d1d1b;
        font-family: AcuminVariableConcept, 'Acumin Variable Concept';
        font-size: 12px;
        font-variation-settings: 'wght' 194, 'wdth' 100, 'slnt' 0;
      }

      .cls-5 {
        letter-spacing: 0em;
      }

      .cls-6 {
        letter-spacing: -.01em;
      }

      .cls-7 {
        letter-spacing: -.01em;
      }

      .cls-8 {
        letter-spacing: 0em;
      }
    </style>
  </defs>
  <rect y="359.79" width="529.19" height="237.75"/>
  <g>
    <path d="M101.2,272.81c.11-2.96-.5-3.56-1.56-5.51-.47-.85,1.01-2.16,1.43-2.87,1.69-2.88-4.67-10.39-2.97-20.94l1.41-8.73.11-6.67c.06-3.77,2.78-12.77-1.27-13.66-4.59-1.01-8.64-2.83-12.66-5.21-2.1-1.24-4.38-2.65-5.09-5.16s-1.53-4.8-2.47-7.2c-1.19-3.04-2.28-5.8-4.93-7.89-2.24-1.77-3.5-7.6.07-10.08,2.89-2.01,2.61,4.54,4.16,6.49,1.26,1.59,2.11,2.43,2.57,4.6.28,1.32,1.85,3.16,2.95,4.05,1.76,1.42,3.06,2.78,4.01,4.91.42.95.92,2.63,1.72,3.24,3.71,1.11,7.03,2.09,10.51,3.55,2.47,1.04,2.41-1.19,5.92-1.88-.39-6.55-7.62-14.13-1.89-18.62.33-.26.39-1.41.11-1.68s-1-.25-1.72-.11-1.89-.78-2.5-1.14c-.28-.17-1.12-.26-1.4-.38-.72-.3-.36-2.02-1.29-4.48s.28-3.89,2.06-5.18c.99-.72,1.57-1.24,2.92-.86,2.18.61,4.44,1.36,5.64,3.52,1.72,3.08.13,2.09,2,5.22.6,1.01,1.02,2.23,1.5,3.45l2.71-1.73c1.43-.91,2.54-2.16,3.15-3.82,1.61-4.38,4.27-11.71,6.56-15.47,1.52-2.5,3.45-4.45,6.21-5.44l2.86-1.03c1.21,1.12-1.77,1.19-2.66,3.19l2-.11c.42-.02,1.11,1,.86,1.33-.8.11-2.25-.03-2.9.18-4.57,1.42-5.57,7.59-6.06,11.8-.41,3.5-1.86,3.18-2.58,5.86-.82,3.04-1.73,5.52-3.37,8.29,1.08.36,2.1.22,3.19.13l3.17-.27,7.04-.74,4.04-.48c2.15-.26,8.75-.57,10.27.94.16.16-.48.69-.74.7l-3.26.08,3.26,1.35c-1.09,1.89-3.4-.55-5.38-.22l1.45,1.01c.21.14.03.95-.21,1.03-1.47.5-1.97-1.1-5.86-1.68-3.41-.51-2.65,1.76-8.44,1.82-2.84.03-5.6.98-8.12,2.07,1.48,3.5-.66,4.65-1,6.26l-1.42,6.77c-.65,3.12-1.56,6.06-2.94,8.92-3.12,6.49-1.19,12.86-4.1,19.2-.17.37-.81,1.1-.94,1.55-1.16,3.85-2.11,8-2.72,12.05-.74,4.87.17,5.44.26,9.38.07,2.97.3,5.68,1.34,8.43.89,2.36.81,4.81-.3,7.08l-2.88,5.91c-.37.75-1.66.83-2.16.29-1.46-1.61-.75-4.1.29-5.39Z"/>
    <path d="M354.87,217.39c.81-.36,1.88-.05,2.71,0,2.06.14,4.2.17,6.25,0l3.13-.26c.33-.03,1.23.03,1.33.33,1.3,3.7-3.97-.16-4.35,4.66l-.3,3.83-.19,20.71c-.04,3.81-1.86,6.96-4.65,9.34-2.26,1.93-5.07,2.82-8.1,3.1-8.43.78-17.62-.48-19.3-10.39l-.54-3.2-.03-22.57c0-.62-.36-1.89-.55-2.49-1.22-1.29-4.36-.8-4.57-1.64-.09-.38.02-1.24.26-1.53s1.2.18,1.61.18h14.17c.41,0,1.41-.28,1.8-.32l.03,2.08c-1.49.09-2.79.2-4.13.87-.58.29-.65,1.84-.72,2.49l-.27,2.47-.02,18.13.29,1.79c.29,1.79.03,3.68.95,5.17,1.32,3.89,4.64,6.03,8.78,6.11,3.03.06,6.01-.44,8.39-2.62,1.7-1.55,3.02-4.1,3.02-6.6l.05-24.34c0-.73-.55-2.19-1.1-2.55-1.1-.74-2.63-.84-4.02-.92l.09-1.85Z"/>
    <path d="M166.05,254.28c-4.85,6.33-14.05,6.19-20.64,2.4l-.92-8.76c-.05-.51,1.61-.71,1.76-.22,1.63,5.16,3.06,8.96,9.03,8.91,2.03-.02,3.52-.42,4.87-1.94,2.25-2.53,2.53-6.95.12-9.54-4.56-4.9-16-5.61-14.62-18.55.55-5.15,4.64-9.09,9.62-10.02,2-.38,3.81-.33,5.79-.01l5.09.82.28,4.06.32,4.25-1.67.61c-.65-1.98-.98-3.87-2.34-5.38-2.27-2.53-6.65-2.63-9.14-.3s-2.91,6.37-.93,9.19c3.53,5.03,16.03,6.01,15.76,17.04-.07,2.77-.65,5.16-2.39,7.43Z"/>
    <path d="M228.48,258.33l-.13-1.09,3.17-.67c.29-.77.48-2.12.48-3.06v-18.19c0-.59-.07-2.13-.57-2.43-.74-.46-2.07-.55-3.05-.64v-1.46c8.36.55,18.76-2.14,24.56,5.13,4.54,5.69,3.87,14.25-1.46,19.08-3.18,2.88-7.15,3.9-11.28,3.66l-3.69-.22c-2.62-.16-5.15-.1-8.03-.11ZM249.37,238.6c-2.01-5.37-6.99-6.4-12.22-5.96l.08,22.58c0,1.74,6.56,3.26,10.5-1.47,3.33-3.99,3.37-10.52,1.64-15.14Z"/>
    <path d="M394.32,258.28l-18.61-21.52v16.12c.01,1.07.43,2.37.75,3.5l3.06.99c.19.06.36.85.29,1.03s-.57-.04-.83-.04l-8.15-.04c-.24,0-.9.38-.97.16l-.31-.95c-.29-.9,3.94.12,3.95-3.62l.08-18.57c.02-4.27-5.16-1.87-3.71-4.43-.08.14,6.76.29,7.68.07l16.9,19.15v-15.33c0-1.69-1.5-2.51-3-2.47l-.78-.04c-.2-.01-.12-.57-.11-1.17l8.75-.05c.17,0,.65-.16.82-.17.22-.02.44.46.46.68.11,1.1-2.58.47-3.11,1.52s-.88,2.53-.88,3.74v22.29c-.94.39-1.61-.09-2.28-.87Z"/>
    <path d="M431.5,244.67c0,7.96-6.47,14.41-14.44,14.41s-14.44-6.45-14.44-14.41,6.47-14.41,14.44-14.41,14.44,6.45,14.44,14.41ZM425.81,246.87c.09-4.23-.43-8.67-3.3-11.89-1.65-1.85-3.42-2.79-5.93-2.74-1.75.04-3.41.38-4.87,1.63-4.64,3.97-4.77,15.24-.21,20.47,1.83,2.1,4.22,3.08,7.02,2.81,4.94-.46,7.18-5.58,7.28-10.28Z"/>
    <path d="M301.96,244.67c0,7.96-6.46,14.41-14.43,14.41s-14.43-6.45-14.43-14.41,6.46-14.41,14.43-14.41,14.43,6.45,14.43,14.41ZM292.9,234.84c-1.79-2.1-3.95-2.72-6.69-2.58-8.01.41-9.27,13.24-5.5,20.34,1.25,2.35,3.34,3.85,5.42,4.34,2.58.62,5.21.07,7-1.71,4.53-4.48,4.17-15.25-.23-20.39Z"/>
    <path d="M217.85,232.2c-.13-.23-.08-1.28.15-1.26l1.05.08c2.37.18,4.88.16,7.38-.08.31-.03.46.52.46.91-.01,1.14-2.97-.13-3.01,2.74l-.21,16.01c-.06,4.59-3.66,7.9-8.12,8.25-1.89.15-3.72.17-5.63,0-3.99-.35-7.47-3.45-7.53-7.57l-.18-14.14c-.01-1.16-.22-2.31-.35-3.62-.06-.62-1.46-.97-2.08-1.1l-1.12-.25c-.23-.05.04-.88.11-1.11.08-.29.74.01,1.13.01l9.38.03.94-.17c.22-.04.36,1.1.19,1.19l-2.73.8c-.2.8-.54,2.15-.54,2.98l.02,13.04c0,.68.33,1.92.4,2.53.41,3.66,3.12,5.39,6.57,5.45s7.05-2.05,7.1-6.08l.17-14.3c.02-1.3-.16-2.72-.74-3.75l-2.82-.62Z"/>
    <path d="M187.44,255c0,3.2,3.69,1.51,3.39,2.51l-.29,1c-.07.22-.73-.16-.97-.16h-10.27c-.22.08-.72.35-.75.18l-.22-1.2,3.07-.65c.29-.06.57-1.08.57-1.53v-22.14c-2.84-.22-5.33,0-8.19.53l-1.44,3.07c-.15.31-1.17.22-1.13-.1l.24-2.02c.35-2.94-.05-3.53.65-4.62.3-.47,1.02.88,1.48.88l22.38.02c.48,0,1.76-1.08,1.72-.33l-.31,5.52c-.02.39-1.03.95-1.34.92-.23-1.25-.51-2.85-1.34-3.58l-6.59-.11c-.16,0-.6-.09-.74-.11-.19-.02.06.61.06.84v21.09Z"/>
    <path d="M258.83,258.41c.02.08-.1-.8-.15-1.13l2.84-.73c.36-.68.51-2.13.51-3.03v-18.19c0-.66-.27-1.92-.47-2.52l-2.84-.61-.05-1.37h11.84s-.02,1.33-.02,1.33c0,.26-.85.14-1.1.21l-1.6.44c-.4.11-.61,1.13-.61,1.64v20.58c0,3.08,3.38,1.51,3.37,2.47,0,.45-.08.94-.43.93-3.39-.1-7.46-.09-11.28,0Z"/>
    <path d="M200.35,199.39c-1.38,4.27-8.09,3.09-11.4,3.29v-7.29c2.88.02,5.58-.04,8.34.14,1.91.13,3.69,1.92,3.06,3.86ZM197.85,197.03c-.88-.6-2.21-1.01-3.08-1.01l-3.82.02c.18,2.11.17,3.77,0,5.74,1.79-.1,6.11.54,7.13-1.74.34-.75.59-2.45-.22-3Z"/>
    <path d="M293.26,195.42l-.07,7.58-9.34-5.8v5.45s-1.23,0-1.23,0v-7.31c.81.09,1.43.32,2.06.72l7.32,4.57.04-5.22h1.22Z"/>
    <path d="M336.48,202.68l-8.11-.08,7.69-6.49c-1.28-.1-2.43-.01-3.76.1l-2.61.22c-.08-.11-.21-.37-.5-.99l10.15.11-7.62,6.18,7.53.11c-.84.6-1.86.85-2.78.84Z"/>
    <path d="M381.16,200.02l-4.52-.08-1.37,2.04c-.42.63-1.16.95-1.84.47l5.93-7.56,5.85,7.66c-.69.15-1.97.27-2.26-.12l-1.78-2.4ZM380.55,198.98l-1.63-2.1-1.47,2.17,3.1-.07Z"/>
    <path d="M243.15,199.99h-4.6s-1.94,2.72-1.94,2.72l-1.36-.14,6.03-7.63,5.72,7.52c-.44.22-1.77.37-2.04,0l-1.81-2.47ZM242.49,198.99l-1.55-2.12-1.7,2.17,3.25-.05Z"/>
  </g>
  <path d="M1162.19,404.47c.02-.65-.11-.78-.34-1.2-.1-.19.22-.47.31-.63.37-.63-1.02-2.27-.65-4.58l.31-1.91.02-1.46c.01-.82.61-2.79-.28-2.99-1-.22-1.89-.62-2.77-1.14-.46-.27-.96-.58-1.11-1.13s-.33-1.05-.54-1.57c-.26-.66-.5-1.27-1.08-1.72-.49-.39-.76-1.66.02-2.2.63-.44.57.99.91,1.42.28.35.46.53.56,1.01.06.29.4.69.64.88.38.31.67.61.88,1.07.09.21.2.57.37.71.81.24,1.54.46,2.3.78.54.23.53-.26,1.29-.41-.09-1.43-1.66-3.09-.41-4.07.07-.06.09-.31.02-.37s-.22-.06-.38-.02-.41-.17-.55-.25c-.06-.04-.24-.06-.31-.08-.16-.06-.08-.44-.28-.98s.06-.85.45-1.13c.22-.16.34-.27.64-.19.48.13.97.3,1.23.77.38.67.03.46.44,1.14.13.22.22.49.33.75l.59-.38c.31-.2.56-.47.69-.84.35-.96.93-2.56,1.43-3.38.33-.55.75-.97,1.36-1.19l.63-.22c.26.24-.39.26-.58.7l.44-.02c.09,0,.24.22.19.29-.17.02-.49,0-.63.04-1,.31-1.22,1.66-1.33,2.58-.09.76-.41.7-.56,1.28-.18.66-.38,1.21-.74,1.81.24.08.46.05.7.03l.69-.06,1.54-.16.88-.1c.47-.06,1.91-.12,2.24.21.03.03-.11.15-.16.15l-.71.02.71.3c-.24.41-.74-.12-1.18-.05l.32.22s0,.21-.05.22c-.32.11-.43-.24-1.28-.37-.74-.11-.58.39-1.84.4-.62,0-1.22.21-1.77.45.32.76-.14,1.02-.22,1.37l-.31,1.48c-.14.68-.34,1.32-.64,1.95-.68,1.42-.26,2.81-.9,4.2-.04.08-.18.24-.21.34-.25.84-.46,1.75-.59,2.63-.16,1.07.04,1.19.06,2.05.01.65.06,1.24.29,1.84.2.52.18,1.05-.07,1.55l-.63,1.29c-.08.16-.36.18-.47.06-.32-.35-.16-.9.06-1.18Z"/>
  <path d="M1506.51,392.4c.81-.36,1.88-.05,2.71,0,2.06.14,4.2.17,6.25,0l3.13-.26c.33-.03,1.23.03,1.33.33,1.3,3.7-3.97-.16-4.35,4.66l-.3,3.83-.19,20.71c-.04,3.81-1.86,6.96-4.65,9.34-2.26,1.93-5.07,2.82-8.1,3.1-8.43.78-17.62-.48-19.3-10.39l-.54-3.2-.03-22.57c0-.62-.36-1.89-.55-2.49-1.22-1.29-4.36-.8-4.57-1.64-.09-.38.02-1.24.26-1.53s1.2.18,1.61.18h14.17c.41,0,1.41-.28,1.8-.32l.03,2.08c-1.49.09-2.79.2-4.13.87-.58.29-.65,1.84-.72,2.49l-.27,2.47-.02,18.13.29,1.79c.29,1.79.03,3.68.95,5.17,1.32,3.89,4.64,6.03,8.78,6.11,3.03.06,6.01-.44,8.39-2.62,1.7-1.55,3.02-4.1,3.02-6.6l.05-24.34c0-.73-.55-2.19-1.1-2.55-1.1-.74-2.63-.84-4.02-.92l.09-1.85Z"/>
  <path d="M1317.69,429.29c-4.85,6.33-14.05,6.19-20.64,2.4l-.92-8.76c-.05-.51,1.61-.71,1.76-.22,1.63,5.16,3.06,8.96,9.03,8.91,2.03-.02,3.52-.42,4.87-1.94,2.25-2.53,2.53-6.95.12-9.54-4.56-4.9-16-5.61-14.62-18.55.55-5.15,4.64-9.09,9.62-10.02,2-.38,3.81-.33,5.79-.01l5.09.82.28,4.06.32,4.25-1.67.61c-.65-1.98-.98-3.87-2.34-5.38-2.27-2.53-6.65-2.63-9.14-.3s-2.91,6.37-.93,9.19c3.53,5.03,16.03,6.01,15.76,17.04-.07,2.77-.65,5.16-2.39,7.43Z"/>
  <path d="M1380.12,433.34l-.13-1.09,3.17-.67c.29-.77.48-2.12.48-3.06v-18.19c0-.59-.07-2.13-.57-2.43-.74-.46-2.07-.55-3.05-.64v-1.46c8.36.55,18.76-2.14,24.56,5.13,4.54,5.69,3.87,14.25-1.46,19.08-3.18,2.88-7.15,3.9-11.28,3.66l-3.69-.22c-2.62-.16-5.15-.1-8.03-.11ZM1401.01,413.61c-2.01-5.37-6.99-6.4-12.22-5.96l.08,22.58c0,1.74,6.56,3.26,10.5-1.47,3.33-3.99,3.37-10.52,1.64-15.14Z"/>
  <path d="M1545.97,433.29l-18.61-21.52v16.12c.01,1.07.43,2.37.75,3.5l3.06.99c.19.06.36.85.29,1.03s-.57-.04-.83-.04l-8.15-.04c-.24,0-.9.38-.97.16l-.31-.95c-.29-.9,3.94.12,3.95-3.62l.08-18.57c.02-4.27-5.16-1.87-3.71-4.43-.08.14,6.76.29,7.68.07l16.9,19.15v-15.33c0-1.69-1.5-2.51-3-2.47l-.78-.04c-.2-.01-.12-.57-.11-1.17l8.75-.05c.17,0,.65-.16.82-.17.22-.02.44.46.46.68.11,1.1-2.58.47-3.11,1.52s-.88,2.53-.88,3.74v22.29c-.94.39-1.61-.09-2.28-.87Z"/>
  <path d="M1583.14,419.68c0,7.96-6.47,14.41-14.44,14.41s-14.44-6.45-14.44-14.41,6.47-14.41,14.44-14.41,14.44,6.45,14.44,14.41ZM1577.45,421.88c.09-4.23-.43-8.67-3.3-11.89-1.65-1.85-3.42-2.79-5.93-2.74-1.75.04-3.41.38-4.87,1.63-4.64,3.97-4.77,15.24-.21,20.47,1.83,2.1,4.22,3.08,7.02,2.81,4.94-.46,7.18-5.58,7.28-10.28Z"/>
  <path d="M1453.6,419.68c0,7.96-6.46,14.41-14.43,14.41s-14.43-6.45-14.43-14.41,6.46-14.41,14.43-14.41,14.43,6.45,14.43,14.41ZM1444.54,409.85c-1.79-2.1-3.95-2.72-6.69-2.58-8.01.41-9.27,13.24-5.5,20.34,1.25,2.35,3.34,3.85,5.42,4.34,2.58.62,5.21.07,7-1.71,4.53-4.48,4.17-15.25-.23-20.39Z"/>
  <path d="M1369.49,407.21c-.13-.23-.08-1.28.15-1.26l1.05.08c2.37.18,4.88.16,7.38-.08.31-.03.46.52.46.91-.01,1.14-2.97-.13-3.01,2.74l-.21,16.01c-.06,4.59-3.66,7.9-8.12,8.25-1.89.15-3.72.17-5.63,0-3.99-.35-7.47-3.45-7.53-7.57l-.18-14.14c-.01-1.16-.22-2.31-.35-3.62-.06-.62-1.46-.97-2.08-1.1l-1.12-.25c-.23-.05.04-.88.11-1.11.08-.29.74.01,1.13.01l9.38.03.94-.17c.22-.04.36,1.1.19,1.19l-2.73.8c-.2.8-.54,2.15-.54,2.98l.02,13.04c0,.68.33,1.92.4,2.53.41,3.66,3.12,5.39,6.57,5.45s7.05-2.05,7.1-6.08l.17-14.3c.02-1.3-.16-2.72-.74-3.75l-2.82-.62Z"/>
  <path d="M1339.08,430c0,3.2,3.69,1.51,3.39,2.51l-.29,1c-.07.22-.73-.16-.97-.16h-10.27c-.22.08-.72.35-.75.18l-.22-1.2,3.07-.65c.29-.06.57-1.08.57-1.53v-22.14c-2.84-.22-5.33,0-8.19.53l-1.44,3.07c-.15.31-1.17.22-1.13-.1l.24-2.02c.35-2.94-.05-3.53.65-4.62.3-.47,1.02.88,1.48.88l22.38.02c.48,0,1.76-1.08,1.72-.33l-.31,5.52c-.02.39-1.03.95-1.34.92-.23-1.25-.51-2.85-1.34-3.58l-6.59-.11c-.16,0-.6-.09-.74-.11-.19-.02.06.61.06.84v21.09Z"/>
  <path d="M1410.47,433.42c.02.08-.1-.8-.15-1.13l2.84-.73c.36-.68.51-2.13.51-3.03v-18.19c0-.66-.27-1.92-.47-2.52l-2.84-.61-.05-1.37h11.84s-.02,1.33-.02,1.33c0,.26-.85.14-1.1.21l-1.6.44c-.4.11-.61,1.13-.61,1.64v20.58c0,3.08,3.38,1.51,3.37,2.47,0,.45-.08.94-.43.93-3.39-.1-7.46-.09-11.28,0Z"/>
  <path d="M1352,374.4c-1.38,4.27-8.09,3.09-11.4,3.29v-7.29c2.88.02,5.58-.04,8.34.14,1.91.13,3.69,1.92,3.06,3.86ZM1349.5,372.04c-.88-.6-2.21-1.01-3.08-1.01l-3.82.02c.18,2.11.17,3.77,0,5.74,1.79-.1,6.11.54,7.13-1.74.34-.75.59-2.45-.22-3Z"/>
  <path d="M1444.9,370.43l-.07,7.58-9.34-5.8v5.45s-1.23,0-1.23,0v-7.31c.81.09,1.43.32,2.06.72l7.32,4.57.04-5.22h1.22Z"/>
  <path d="M1488.12,377.69l-8.11-.08,7.69-6.49c-1.28-.1-2.43-.01-3.76.1l-2.61.22c-.08-.11-.21-.37-.5-.99l10.15.11-7.62,6.18,7.53.11c-.84.6-1.86.85-2.78.84Z"/>
  <path d="M1532.81,375.02l-4.52-.08-1.37,2.04c-.42.63-1.16.95-1.84.47l5.93-7.56,5.85,7.66c-.69.15-1.97.27-2.26-.12l-1.78-2.4ZM1532.19,373.99l-1.63-2.1-1.47,2.17,3.1-.07Z"/>
  <path d="M1394.79,375h-4.6s-1.94,2.72-1.94,2.72l-1.36-.14,6.03-7.63,5.72,7.52c-.44.22-1.77.37-2.04,0l-1.81-2.47ZM1394.13,373.99l-1.55-2.12-1.7,2.17,3.25-.05Z"/>
  <g>
    <path class="cls-2" d="M116.3,524.33c.11-2.96-.5-3.56-1.56-5.51-.47-.85,1.01-2.16,1.43-2.87,1.69-2.88-4.67-10.39-2.97-20.94l1.41-8.73.11-6.67c.06-3.77,2.78-12.77-1.27-13.66-4.59-1.01-8.64-2.83-12.66-5.21-2.1-1.24-4.38-2.65-5.09-5.16s-1.53-4.8-2.47-7.2c-1.19-3.04-2.28-5.8-4.93-7.89-2.24-1.77-3.5-7.6.07-10.08,2.89-2.01,2.61,4.54,4.16,6.49,1.26,1.59,2.11,2.43,2.57,4.6.28,1.32,1.85,3.16,2.95,4.05,1.76,1.42,3.06,2.78,4.01,4.91.42.95.92,2.63,1.72,3.24,3.71,1.11,7.03,2.09,10.51,3.55,2.47,1.04,2.41-1.19,5.92-1.88-.39-6.55-7.62-14.13-1.89-18.62.33-.26.39-1.41.11-1.68s-1-.25-1.72-.11-1.89-.78-2.5-1.14c-.28-.17-1.12-.26-1.4-.38-.72-.3-.36-2.02-1.29-4.48s.28-3.89,2.06-5.18c.99-.72,1.57-1.24,2.92-.86,2.18.61,4.44,1.36,5.64,3.52,1.72,3.08.13,2.09,2,5.22.6,1.01,1.02,2.23,1.5,3.45l2.71-1.73c1.43-.91,2.54-2.16,3.15-3.82,1.61-4.38,4.27-11.71,6.56-15.47,1.52-2.5,3.45-4.45,6.21-5.44l2.86-1.03c1.21,1.12-1.77,1.19-2.66,3.19l2-.11c.42-.02,1.11,1,.86,1.33-.8.11-2.25-.03-2.9.18-4.57,1.42-5.57,7.59-6.06,11.8-.41,3.5-1.86,3.18-2.58,5.86-.82,3.04-1.73,5.52-3.37,8.29,1.08.36,2.1.22,3.19.13l3.17-.27,7.04-.74,4.04-.48c2.15-.26,8.75-.57,10.27.94.16.16-.48.69-.74.7l-3.26.08,3.26,1.35c-1.09,1.89-3.4-.55-5.38-.22l1.45,1.01c.21.14.03.95-.21,1.03-1.47.5-1.97-1.1-5.86-1.68-3.41-.51-2.65,1.76-8.44,1.82-2.84.03-5.6.98-8.12,2.07,1.48,3.5-.66,4.65-1,6.26l-1.42,6.77c-.65,3.12-1.56,6.06-2.94,8.92-3.12,6.49-1.19,12.86-4.1,19.2-.17.37-.81,1.1-.94,1.55-1.16,3.85-2.11,8-2.72,12.05-.74,4.87.17,5.44.26,9.38.07,2.97.3,5.68,1.34,8.43.89,2.36.81,4.81-.3,7.08l-2.88,5.91c-.37.75-1.66.83-2.16.29-1.46-1.61-.75-4.1.29-5.39Z"/>
    <path class="cls-2" d="M369.97,468.91c.81-.36,1.88-.05,2.71,0,2.06.14,4.2.17,6.25,0l3.13-.26c.33-.03,1.23.03,1.33.33,1.3,3.7-3.97-.16-4.35,4.66l-.3,3.83-.19,20.71c-.04,3.81-1.86,6.96-4.65,9.34-2.26,1.93-5.07,2.82-8.1,3.1-8.43.78-17.62-.48-19.3-10.39l-.54-3.2-.03-22.57c0-.62-.36-1.89-.55-2.49-1.22-1.29-4.36-.8-4.57-1.64-.09-.38.02-1.24.26-1.53s1.2.18,1.61.18h14.17c.41,0,1.41-.28,1.8-.32l.03,2.08c-1.49.09-2.79.2-4.13.87-.58.29-.65,1.84-.72,2.49l-.27,2.47-.02,18.13.29,1.79c.29,1.79.03,3.68.95,5.17,1.32,3.89,4.64,6.03,8.78,6.11,3.03.06,6.01-.44,8.39-2.62,1.7-1.55,3.02-4.1,3.02-6.6l.05-24.34c0-.73-.55-2.19-1.1-2.55-1.1-.74-2.63-.84-4.02-.92l.09-1.85Z"/>
    <path class="cls-2" d="M181.16,505.79c-4.85,6.33-14.05,6.19-20.64,2.4l-.92-8.76c-.05-.51,1.61-.71,1.76-.22,1.63,5.16,3.06,8.96,9.03,8.91,2.03-.02,3.52-.42,4.87-1.94,2.25-2.53,2.53-6.95.12-9.54-4.56-4.9-16-5.61-14.62-18.55.55-5.15,4.64-9.09,9.62-10.02,2-.38,3.81-.33,5.79-.01l5.09.82.28,4.06.32,4.25-1.67.61c-.65-1.98-.98-3.87-2.34-5.38-2.27-2.53-6.65-2.63-9.14-.3s-2.91,6.37-.93,9.19c3.53,5.03,16.03,6.01,15.76,17.04-.07,2.77-.65,5.16-2.39,7.43Z"/>
    <path class="cls-2" d="M243.59,509.85l-.13-1.09,3.17-.67c.29-.77.48-2.12.48-3.06v-18.19c0-.59-.07-2.13-.57-2.43-.74-.46-2.07-.55-3.05-.64v-1.46c8.36.55,18.76-2.14,24.56,5.13,4.54,5.69,3.87,14.25-1.46,19.08-3.18,2.88-7.15,3.9-11.28,3.66l-3.69-.22c-2.62-.16-5.15-.1-8.03-.11ZM264.47,490.12c-2.01-5.37-6.99-6.4-12.22-5.96l.08,22.58c0,1.74,6.56,3.26,10.5-1.47,3.33-3.99,3.37-10.52,1.64-15.14Z"/>
    <path class="cls-2" d="M409.43,509.8l-18.61-21.52v16.12c.01,1.07.43,2.37.75,3.5l3.06.99c.19.06.36.85.29,1.03s-.57-.04-.83-.04l-8.15-.04c-.24,0-.9.38-.97.16l-.31-.95c-.29-.9,3.94.12,3.95-3.62l.08-18.57c.02-4.27-5.16-1.87-3.71-4.43-.08.14,6.76.29,7.68.07l16.9,19.15v-15.33c0-1.69-1.5-2.51-3-2.47l-.78-.04c-.2-.01-.12-.57-.11-1.17l8.75-.05c.17,0,.65-.16.82-.17.22-.02.44.46.46.68.11,1.1-2.58.47-3.11,1.52s-.88,2.53-.88,3.74v22.29c-.94.39-1.61-.09-2.28-.87Z"/>
    <path class="cls-2" d="M446.61,496.19c0,7.96-6.47,14.41-14.44,14.41s-14.44-6.45-14.44-14.41,6.47-14.41,14.44-14.41,14.44,6.45,14.44,14.41ZM440.91,498.38c.09-4.23-.43-8.67-3.3-11.89-1.65-1.85-3.42-2.79-5.93-2.74-1.75.04-3.41.38-4.87,1.63-4.64,3.97-4.77,15.24-.21,20.47,1.83,2.1,4.22,3.08,7.02,2.81,4.94-.46,7.18-5.58,7.28-10.28Z"/>
    <path class="cls-2" d="M317.07,496.19c0,7.96-6.46,14.41-14.43,14.41s-14.43-6.45-14.43-14.41,6.46-14.41,14.43-14.41,14.43,6.45,14.43,14.41ZM308,486.36c-1.79-2.1-3.95-2.72-6.69-2.58-8.01.41-9.27,13.24-5.5,20.34,1.25,2.35,3.34,3.85,5.42,4.34,2.58.62,5.21.07,7-1.71,4.53-4.48,4.17-15.25-.23-20.39Z"/>
    <path class="cls-2" d="M232.96,483.71c-.13-.23-.08-1.28.15-1.26l1.05.08c2.37.18,4.88.16,7.38-.08.31-.03.46.52.46.91-.01,1.14-2.97-.13-3.01,2.74l-.21,16.01c-.06,4.59-3.66,7.9-8.12,8.25-1.89.15-3.72.17-5.63,0-3.99-.35-7.47-3.45-7.53-7.57l-.18-14.14c-.01-1.16-.22-2.31-.35-3.62-.06-.62-1.46-.97-2.08-1.1l-1.12-.25c-.23-.05.04-.88.11-1.11.08-.29.74.01,1.13.01l9.38.03.94-.17c.22-.04.36,1.1.19,1.19l-2.73.8c-.2.8-.54,2.15-.54,2.98l.02,13.04c0,.68.33,1.92.4,2.53.41,3.66,3.12,5.39,6.57,5.45s7.05-2.05,7.1-6.08l.17-14.3c.02-1.3-.16-2.72-.74-3.75l-2.82-.62Z"/>
    <path class="cls-2" d="M202.55,506.51c0,3.2,3.69,1.51,3.39,2.51l-.29,1c-.07.22-.73-.16-.97-.16h-10.27c-.22.08-.72.35-.75.18l-.22-1.2,3.07-.65c.29-.06.57-1.08.57-1.53v-22.14c-2.84-.22-5.33,0-8.19.53l-1.44,3.07c-.15.31-1.17.22-1.13-.1l.24-2.02c.35-2.94-.05-3.53.65-4.62.3-.47,1.02.88,1.48.88l22.38.02c.48,0,1.76-1.08,1.72-.33l-.31,5.52c-.02.39-1.03.95-1.34.92-.23-1.25-.51-2.85-1.34-3.58l-6.59-.11c-.16,0-.6-.09-.74-.11-.19-.02.06.61.06.84v21.09Z"/>
    <path class="cls-2" d="M273.93,509.92c.02.08-.1-.8-.15-1.13l2.84-.73c.36-.68.51-2.13.51-3.03v-18.19c0-.66-.27-1.92-.47-2.52l-2.84-.61-.05-1.37h11.84s-.02,1.33-.02,1.33c0,.26-.85.14-1.1.21l-1.6.44c-.4.11-.61,1.13-.61,1.64v20.58c0,3.08,3.38,1.51,3.37,2.47,0,.45-.08.94-.43.93-3.39-.1-7.46-.09-11.28,0Z"/>
    <path class="cls-2" d="M215.46,450.91c-1.38,4.27-8.09,3.09-11.4,3.29v-7.29c2.88.02,5.58-.04,8.34.14,1.91.13,3.69,1.92,3.06,3.86ZM212.96,448.55c-.88-.6-2.21-1.01-3.08-1.01l-3.82.02c.18,2.11.17,3.77,0,5.74,1.79-.1,6.11.54,7.13-1.74.34-.75.59-2.45-.22-3Z"/>
    <path class="cls-2" d="M308.36,446.93l-.07,7.58-9.34-5.8v5.45s-1.23,0-1.23,0v-7.31c.81.09,1.43.32,2.06.72l7.32,4.57.04-5.22h1.22Z"/>
    <path class="cls-2" d="M351.58,454.19l-8.11-.08,7.69-6.49c-1.28-.1-2.43-.01-3.76.1l-2.61.22c-.08-.11-.21-.37-.5-.99l10.15.11-7.62,6.18,7.53.11c-.84.6-1.86.85-2.78.84Z"/>
    <path class="cls-2" d="M396.27,451.53l-4.52-.08-1.37,2.04c-.42.63-1.16.95-1.84.47l5.93-7.56,5.85,7.66c-.69.15-1.97.27-2.26-.12l-1.78-2.4ZM395.65,450.49l-1.63-2.1-1.47,2.17,3.1-.07Z"/>
    <path class="cls-2" d="M258.25,451.51h-4.6s-1.94,2.72-1.94,2.72l-1.36-.14,6.03-7.63,5.72,7.52c-.44.22-1.77.37-2.04,0l-1.81-2.47ZM257.6,450.5l-1.55-2.12-1.7,2.17,3.25-.05Z"/>
  </g>
  <text class="cls-4" transform="translate(529.19 10.21)"><tspan class="cls-6" x="0" y="0">3</tspan><tspan x="6.4" y="0">2 x </tspan><tspan class="cls-7" x="23.81" y="0">3</tspan><tspan x="30.2" y="0">2 </tspan><tspan class="cls-5" x="39.4" y="0">f</tspan><tspan class="cls-3" x="42.35" y="0">a</tspan><tspan class="cls-1" x="48.28" y="0">v</tspan><tspan x="53.82" y="0">i</tspan><tspan class="cls-8" x="56.39" y="0">c</tspan><tspan x="62.26" y="0">on</tspan></text>
</svg>