<svg width="15" height="15" viewBox="0 0 15 15" fill="none" xmlns="http://www.w3.org/2000/svg">
<path d="M8.14249 1.25C8.84561 1.25188 9.20249 1.25563 9.51061 1.26438L9.63186 1.26875C9.77186 1.27375 9.90999 1.28 10.0769 1.2875C10.7419 1.31875 11.1956 1.42375 11.5937 1.57813C12.0062 1.73688 12.3537 1.95187 12.7012 2.29875C13.0192 2.61108 13.2651 2.98905 13.4219 3.40625C13.5762 3.80437 13.6812 4.25812 13.7125 4.92375C13.72 5.09 13.7262 5.22813 13.7312 5.36875L13.735 5.49C13.7444 5.7975 13.7481 6.15438 13.7494 6.8575L13.75 7.32375V8.1425C13.7515 8.59838 13.7467 9.05425 13.7356 9.51L13.7319 9.63125C13.7269 9.77187 13.7206 9.91 13.7131 10.0763C13.6819 10.7419 13.5756 11.195 13.4219 11.5938C13.2651 12.011 13.0192 12.3889 12.7012 12.7013C12.3889 13.0192 12.0109 13.2651 11.5937 13.4219C11.1956 13.5763 10.7419 13.6813 10.0769 13.7125L9.63186 13.7312L9.51061 13.735C9.20249 13.7437 8.84561 13.7481 8.14249 13.7494L7.67624 13.75H6.85811C6.40203 13.7516 5.94594 13.7468 5.48999 13.7356L5.36874 13.7319C5.22037 13.7263 5.07203 13.7198 4.92374 13.7125C4.25874 13.6813 3.80499 13.5763 3.40624 13.4219C2.98926 13.265 2.61152 13.0191 2.29936 12.7013C1.98121 12.389 1.73506 12.011 1.57811 11.5938C1.42374 11.1956 1.31874 10.7419 1.28749 10.0763L1.26874 9.63125L1.26561 9.51C1.25409 9.05426 1.24888 8.59838 1.24999 8.1425V6.8575C1.24826 6.40163 1.25284 5.94575 1.26374 5.49L1.26811 5.36875C1.27311 5.22813 1.27936 5.09 1.28686 4.92375C1.31811 4.25812 1.42311 3.805 1.57749 3.40625C1.7348 2.98887 1.98138 2.6109 2.29999 2.29875C2.61196 1.98097 2.98948 1.73505 3.40624 1.57813C3.80499 1.42375 4.25811 1.31875 4.92374 1.2875C5.08999 1.28 5.22874 1.27375 5.36874 1.26875L5.48999 1.265C5.94573 1.2539 6.40161 1.2491 6.85749 1.25062L8.14249 1.25ZM7.49999 4.375C6.67119 4.375 5.87633 4.70424 5.29028 5.29029C4.70423 5.87634 4.37499 6.6712 4.37499 7.5C4.37499 8.3288 4.70423 9.12366 5.29028 9.70971C5.87633 10.2958 6.67119 10.625 7.49999 10.625C8.32879 10.625 9.12365 10.2958 9.7097 9.70971C10.2957 9.12366 10.625 8.3288 10.625 7.5C10.625 6.6712 10.2957 5.87634 9.7097 5.29029C9.12365 4.70424 8.32879 4.375 7.49999 4.375ZM7.49999 5.625C7.74622 5.62496 7.99004 5.67342 8.21754 5.76761C8.44505 5.8618 8.65177 5.99987 8.82591 6.17395C9.00004 6.34803 9.13819 6.55471 9.23246 6.78218C9.32672 7.00965 9.37526 7.25346 9.3753 7.49969C9.37534 7.74592 9.32689 7.98974 9.2327 8.21724C9.13851 8.44474 9.00043 8.65147 8.82635 8.8256C8.65227 8.99974 8.44559 9.13789 8.21812 9.23215C7.99065 9.32642 7.74684 9.37496 7.50061 9.375C7.00333 9.375 6.52642 9.17746 6.17479 8.82583C5.82316 8.47419 5.62561 7.99728 5.62561 7.5C5.62561 7.00272 5.82316 6.52581 6.17479 6.17417C6.52642 5.82254 7.00333 5.625 7.50061 5.625M10.7819 3.4375C10.5747 3.4375 10.3759 3.51981 10.2294 3.66632C10.0829 3.81284 10.0006 4.01155 10.0006 4.21875C10.0006 4.42595 10.0829 4.62466 10.2294 4.77118C10.3759 4.91769 10.5747 5 10.7819 5C10.9891 5 11.1878 4.91769 11.3343 4.77118C11.4808 4.62466 11.5631 4.42595 11.5631 4.21875C11.5631 4.01155 11.4808 3.81284 11.3343 3.66632C11.1878 3.51981 10.9891 3.4375 10.7819 3.4375Z" fill="#BF8FC4"/>
</svg>
