<svg width="13" height="13" viewBox="0 0 13 13" fill="none" xmlns="http://www.w3.org/2000/svg">
<path d="M6.89286 0C7.59598 0.001875 7.95286 0.005625 8.26098 0.014375L8.38223 0.01875C8.52223 0.02375 8.66035 0.03 8.82723 0.0375C9.49223 0.06875 9.94598 0.17375 10.3441 0.328125C10.7566 0.486875 11.1041 0.701875 11.4516 1.04875C11.7695 1.36108 12.0155 1.73905 12.1722 2.15625C12.3266 2.55437 12.4316 3.00812 12.4629 3.67375C12.4704 3.84 12.4766 3.97813 12.4816 4.11875L12.4854 4.24C12.4947 4.5475 12.4985 4.90438 12.4997 5.6075L12.5004 6.07375V6.8925C12.5019 7.34838 12.4971 7.80425 12.486 8.26L12.4822 8.38125C12.4772 8.52187 12.471 8.66 12.4635 8.82625C12.4322 9.49187 12.326 9.945 12.1722 10.3437C12.0155 10.761 11.7695 11.1389 11.4516 11.4513C11.1393 11.7692 10.7613 12.0151 10.3441 12.1719C9.94598 12.3263 9.49223 12.4313 8.82723 12.4625L8.38223 12.4812L8.26098 12.485C7.95286 12.4937 7.59598 12.4981 6.89286 12.4994L6.4266 12.5H5.60848C5.15239 12.5016 4.69631 12.4968 4.24036 12.4856L4.11911 12.4819C3.97074 12.4763 3.8224 12.4698 3.67411 12.4625C3.00911 12.4313 2.55536 12.3263 2.15661 12.1719C1.73962 12.015 1.36188 11.7691 1.04973 11.4513C0.731571 11.139 0.485424 10.761 0.328481 10.3437C0.174106 9.94562 0.0691055 9.49187 0.0378555 8.82625L0.0191055 8.38125L0.0159806 8.26C0.00445933 7.80426 -0.000749559 7.34838 0.000355498 6.8925V5.6075C-0.00137444 5.15163 0.00320938 4.69575 0.0141055 4.24L0.0184805 4.11875C0.0234805 3.97813 0.0297305 3.84 0.0372305 3.67375C0.0684805 3.00812 0.17348 2.555 0.327855 2.15625C0.485164 1.73887 0.731745 1.3609 1.05036 1.04875C1.36233 0.730968 1.73985 0.485046 2.15661 0.328125C2.55536 0.17375 3.00848 0.06875 3.67411 0.0375C3.84036 0.03 3.97911 0.02375 4.11911 0.01875L4.24036 0.015C4.6961 0.00389544 5.15198 -0.000896686 5.60786 0.000624955L6.89286 0ZM6.25036 3.125C5.42155 3.125 4.6267 3.45424 4.04065 4.04029C3.4546 4.62634 3.12536 5.4212 3.12536 6.25C3.12536 7.0788 3.4546 7.87366 4.04065 8.45971C4.6267 9.04576 5.42155 9.375 6.25036 9.375C7.07916 9.375 7.87401 9.04576 8.46006 8.45971C9.04612 7.87366 9.37536 7.0788 9.37536 6.25C9.37536 5.4212 9.04612 4.62634 8.46006 4.04029C7.87401 3.45424 7.07916 3.125 6.25036 3.125ZM6.25036 4.375C6.49658 4.37496 6.74041 4.42342 6.96791 4.51761C7.19541 4.6118 7.40213 4.74987 7.57627 4.92395C7.75041 5.09803 7.88856 5.30471 7.98282 5.53218C8.07709 5.75965 8.12563 6.00346 8.12567 6.24969C8.12571 6.49592 8.07725 6.73974 7.98306 6.96724C7.88887 7.19474 7.75079 7.40147 7.57671 7.5756C7.40263 7.74974 7.19596 7.88789 6.96849 7.98215C6.74102 8.07642 6.49721 8.12496 6.25098 8.125C5.7537 8.125 5.27679 7.92746 4.92516 7.57583C4.57352 7.22419 4.37598 6.74728 4.37598 6.25C4.37598 5.75272 4.57352 5.27581 4.92516 4.92417C5.27679 4.57254 5.7537 4.375 6.25098 4.375M9.53223 2.1875C9.32503 2.1875 9.12632 2.26981 8.9798 2.41632C8.83329 2.56284 8.75098 2.76155 8.75098 2.96875C8.75098 3.17595 8.83329 3.37466 8.9798 3.52118C9.12632 3.66769 9.32503 3.75 9.53223 3.75C9.73943 3.75 9.93814 3.66769 10.0847 3.52118C10.2312 3.37466 10.3135 3.17595 10.3135 2.96875C10.3135 2.76155 10.2312 2.56284 10.0847 2.41632C9.93814 2.26981 9.73943 2.1875 9.53223 2.1875Z" fill="black"/>
</svg>
